<?xml version="1.0" encoding="UTF-8"?>
<!DOCTYPE svg PUBLIC "-//W3C//DTD SVG 1.1//EN" "http://www.w3.org/Graphics/SVG/1.1/DTD/svg11.dtd">
<!-- Creator: CorelDRAW X8 -->
<svg xmlns="http://www.w3.org/2000/svg" xml:space="preserve" width="1181px" height="389px" version="1.1" style="shape-rendering:geometricPrecision; text-rendering:geometricPrecision; image-rendering:optimizeQuality; fill-rule:evenodd; clip-rule:evenodd"
viewBox="0 0 1181 389"
 xmlns:xlink="http://www.w3.org/1999/xlink">
 <defs>
  <style type="text/css">
   <![CDATA[
    .fil0 {fill:black}
    .fil3 {fill:#FEFEFE}
    .fil1 {fill:red}
    .fil2 {fill:white}
   ]]>
  </style>
 </defs>
 <g id="Katman_x0020_1">
  <metadata id="CorelCorpID_0Corel-Layer"/>
  <g id="_2626519230400">
   <polygon class="fil0" points="0,0 732,0 732,389 0,389 "/>
   <polygon class="fil1" points="732,0 1181,0 1181,389 732,389 "/>
   <path class="fil2" d="M164 299l0 -191 37 0 0 69c11,-13 24,-20 40,-20 16,0 30,7 41,19 11,12 17,29 17,52 0,24 -6,42 -17,55 -11,13 -25,19 -41,19 -8,0 -16,-2 -23,-6 -8,-4 -15,-10 -20,-17l0 20 -34 0zm36 -72c0,14 2,25 7,31 6,10 15,15 25,15 8,0 15,-3 21,-10 6,-7 8,-18 8,-33 0,-16 -2,-27 -8,-34 -6,-7 -13,-11 -22,-11 -9,0 -16,4 -22,11 -6,7 -9,17 -9,31zm128 -85l0 -34 37 0 0 34 -37 0zm0 157l0 -138 37 0 0 138 -37 0zm74 0l0 -191 37 0 0 191 -37 0zm154 -44l37 6c-5,13 -12,24 -22,30 -10,7 -23,11 -38,11 -24,0 -42,-8 -54,-24 -9,-12 -13,-28 -13,-47 0,-23 6,-41 18,-54 12,-13 27,-20 45,-20 21,0 37,7 49,21 12,13 17,34 17,62l-92 0c1,11 3,20 9,26 6,6 13,9 21,9 6,0 11,-2 15,-5 4,-3 7,-8 8,-15zm3 -37c-1,-11 -3,-19 -9,-24 -5,-6 -11,-9 -19,-9 -8,0 -14,3 -19,9 -6,6 -8,14 -8,24l55 0zm129 -57l0 29 -25 0 0 55c0,12 0,18 1,20 0,2 1,4 3,5 2,1 4,2 6,2 4,0 9,-2 15,-4l3 28c-8,4 -18,6 -29,6 -6,0 -12,-1 -18,-3 -5,-3 -9,-5 -11,-9 -3,-3 -4,-8 -5,-14 -1,-4 -2,-13 -2,-26l0 -60 -16 0 0 -29 16 0 0 -28 37 -21 0 49 25 0z"/>
   <path class="fil3" d="M809 192l-36 -6c4,-15 11,-25 21,-33 9,-6 24,-10 44,-10 17,0 31,2 39,6 9,5 15,10 19,16 3,7 5,19 5,36l-1 46c0,13 1,23 2,30 2,6 4,13 8,20l-40 0c-1,-3 -2,-7 -4,-12 0,-2 -1,-4 -1,-5 -7,7 -14,12 -22,15 -8,3 -16,5 -25,5 -15,0 -27,-4 -36,-12 -9,-9 -13,-20 -13,-32 0,-9 2,-16 6,-23 4,-7 9,-12 17,-15 7,-4 18,-7 31,-10 19,-3 32,-6 39,-9l0 -4c0,-8 -2,-13 -6,-17 -4,-3 -11,-4 -21,-4 -7,0 -13,1 -17,4 -4,2 -7,7 -9,14zm53 33c-5,1 -13,3 -24,6 -11,2 -19,4 -22,7 -5,3 -8,8 -8,14 0,5 2,10 7,14 4,4 9,6 15,6 8,0 14,-2 21,-7 5,-4 8,-8 9,-13 1,-4 2,-10 2,-20l0 -7zm78 72l0 -208 40 0 0 208 -40 0zm81 0l0 -208 39 0 0 208 -39 0z"/>
  </g>
 </g>
</svg>
